<svg xmlns="http://www.w3.org/2000/svg" xmlns:xlink="http://www.w3.org/1999/xlink" viewBox="0 0 24 24">
  <defs>
    <style>
      .cls-1 {
        clip-path: url(#clip-aNada);
      }

      .cls-2 {
        fill: #5cf3bc;

      }
    </style>
    <clipPath id="clip-aNada">
      <rect width="24" height="24"/>
    </clipPath>
  </defs>
  <g id="aNada" class="cls-1">
    <g id="encrypted" transform="translate(0 1)">
      <path id="Path_8" data-name="Path 8" class="cls-2" d="M109.673,389.383l-.5.5,1.407,1.407h2.341v-.7h-2.05Zm0,0" transform="translate(-104.058 -371.131)"/>
      <path id="Path_9" data-name="Path 9" class="cls-2" d="M123.836,2.915,126.047.7h6.627l2.212,2.212V6.158h.7V2.623L132.965,0h-7.209l-2.624,2.624V6.158h.7Zm0,0" transform="translate(-117.361)"/>
      <path id="Path_10" data-name="Path 10" class="cls-2" d="M177.963,50.728V48.1l-1.34-1.34h-5.394l-1.34,1.34v2.627h.7V48.393l.928-.928h4.811l.928.928v2.336Zm0,0" transform="translate(-161.926 -44.57)"/>
      <path id="Path_11" data-name="Path 11" class="cls-2" d="M206.054,201.129a2.456,2.456,0,0,0-1.373,4.493v4.143h2.746v-4.143a2.456,2.456,0,0,0-1.373-4.493Zm.85,3.99-.181.1v3.843h-1.34v-3.843l-.181-.1a1.753,1.753,0,1,1,1.7,0Zm0,0" transform="translate(-194.054 -191.701)"/>
      <path id="Path_12" data-name="Path 12" class="cls-2" d="M231.479,227.555a1.206,1.206,0,1,0,1.206,1.206A1.207,1.207,0,0,0,231.479,227.555Zm0,1.708a.5.5,0,1,1,.5-.5A.5.5,0,0,1,231.479,229.263Zm0,0" transform="translate(-219.479 -216.888)"/>
      <path id="Path_13" data-name="Path 13" class="cls-2" d="M22.99,145.278a1.012,1.012,0,0,0-.947.659h-.627l-1.258-1.258v-.523h1.118a1.01,1.01,0,1,0,0-.7H20.157v-.523l1.258-1.258h.627a1.01,1.01,0,1,0,0-.7h-.919l-.967.967v-1.458H3.843v8.167l-.967-.967H1.957a1.01,1.01,0,1,0,0,.7h.628l1.258,1.258v.523H2.725a1.01,1.01,0,1,0,0,.7H3.843v.523l-1.258,1.258H1.957a1.01,1.01,0,1,0,0,.7h.919l.967-.967v.482l2.2,2.2H17.961l2.2-2.2v-7.191l.967.967h.919a1.01,1.01,0,1,0,.947-1.362Zm-.768-1.781a.307.307,0,1,1-.307.307A.308.308,0,0,1,22.222,143.5Zm.768-2.484a.307.307,0,1,1-.307.307A.308.308,0,0,1,22.99,141.012ZM1.01,148.335a.307.307,0,1,1,.307-.307A.307.307,0,0,1,1.01,148.335Zm.768,2.484a.307.307,0,1,1,.307-.307A.307.307,0,0,1,1.778,150.82ZM1.01,153.3A.307.307,0,1,1,1.317,153,.307.307,0,0,1,1.01,153.3Zm16.66,1.053H6.33l-1.784-1.784v-4.967l1.022,1.022h.957a1.035,1.035,0,1,0,0-.7H5.859l-1.313-1.313v-.562H7.208a1.035,1.035,0,1,0,0-.7H4.546v-.562l1.313-1.313h.666a1.035,1.035,0,1,0,0-.7H5.567L4.546,143.79V141.18H19.454v5.607l-1.022-1.022h-.957a1.035,1.035,0,1,0,0,.7h.666l1.313,1.313v.562H16.336a1.035,1.035,0,1,0,0,.7h3.118v.562l-1.313,1.313h-.666a1.035,1.035,0,1,0,0,.7h.957l1.022-1.022v1.971Zm-10.5-6.081a.332.332,0,1,1,.332.332A.332.332,0,0,1,7.166,148.276ZM7.85,145.7a.332.332,0,1,1,.332.332A.332.332,0,0,1,7.85,145.7Zm-.684-2.578a.332.332,0,1,1,.332.332A.332.332,0,0,1,7.166,143.12Zm9.667,3a.332.332,0,1,1-.332-.332A.332.332,0,0,1,16.833,146.116Zm-1.139,2.578a.332.332,0,1,1-.332-.332A.332.332,0,0,1,15.694,148.694Zm1.139,2.578a.332.332,0,1,1-.332-.332A.332.332,0,0,1,16.833,151.272ZM22.99,146.6a.307.307,0,1,1,.307-.307A.308.308,0,0,1,22.99,146.6Zm0,0" transform="translate(0 -133.732)"/>
      <path id="Path_14" data-name="Path 14" class="cls-2" d="M265.695,169.582h-4.139v-.7h4.139Zm-4.608,0h-.7v-.7h.7Zm-1.172,0h-.7v-.7h.7Zm0,0" transform="translate(-247.061 -160.963)"/>
      <path id="Path_15" data-name="Path 15" class="cls-2" d="M204.1,21.7h-3.357V21H204.1Zm-3.826,0h-.7V21h.7Zm-1.172,0h-.7V21h.7Zm0,0" transform="translate(-189.103 -20.016)"/>
      <path id="Path_16" data-name="Path 16" class="cls-2" d="M248.5,291.4v-1.055h.7V291.4Zm0-1.523v-.7h.7v.7Zm0-1.172V288h.7v.7Zm0,0" transform="translate(-236.848 -274.5)"/>
    </g>
  </g>
</svg>
