<svg xmlns="http://www.w3.org/2000/svg" xmlns:xlink="http://www.w3.org/1999/xlink" width="48" height="48" viewBox="0 0 48 48">
  <defs>
    <clipPath id="clip-path">
      <rect id="Rectangle_26" data-name="Rectangle 26" width="39" height="39" transform="translate(5 5)" fill="#fff"/>
    </clipPath>
    <linearGradient id="linear-gradient" x1="0.147" y1="0.125" x2="0.869" y2="0.903" gradientUnits="objectBoundingBox">
      <stop offset="0" stop-color="#4aa1d4"/>
      <stop offset="1" stop-color="#73d5f8"/>
    </linearGradient>
    <clipPath id="clip-path-2">
      <path id="Path_183" data-name="Path 183" d="M5406.567,571.916s18.822,9.608,30.14,28.56S5450,625.745,5450,625.745s-2.106-23.164-10.661-35.272S5406.567,571.916,5406.567,571.916Z" transform="translate(-5406.567 -571.916)" fill="#fff" stroke="#707070" stroke-width="1"/>
    </clipPath>
    <clipPath id="clip-path-3">
      <path id="Path_184" data-name="Path 184" d="M5449.092,644.384s7.309,13.123,4.194,16.861-13.228,4.01-13.228,4.01h22.9Z" transform="translate(-5440.059 -644.384)" fill="none" stroke="#707070" stroke-width="1"/>
    </clipPath>
    <clipPath id="clip-path-4">
      <path id="Path_185" data-name="Path 185" d="M5441.409,665.145s4.361-.779,5.451-7.243a33.72,33.72,0,0,0,0-11.526s.223,13.761-2.86,15.607S5441.409,665.145,5441.409,665.145Z" transform="translate(-5441.38 -646.376)" fill="none" stroke="#707070" stroke-width="1"/>
    </clipPath>
    <clipPath id="clip-Bola_4">
      <rect width="48" height="48"/>
    </clipPath>
  </defs>
  <g id="Bola_4" data-name="Bola 4" clip-path="url(#clip-Bola_4)">
    <g id="Mask_Group_21" data-name="Mask Group 21" clip-path="url(#clip-path)">
      <g id="Group_93" data-name="Group 93" transform="translate(-4814 -1120.53)">
        <ellipse id="Ellipse_2" data-name="Ellipse 2" cx="19.295" cy="19.294" rx="19.295" ry="19.294" transform="translate(4818.969 1126.033)" fill="url(#linear-gradient)"/>
        <g id="Mask_Group_11" data-name="Mask Group 11" transform="translate(4815.567 1124.916)" opacity="0.25" clip-path="url(#clip-path-2)">
          <ellipse id="Ellipse_35" data-name="Ellipse 35" cx="19.295" cy="19.294" rx="19.295" ry="19.294" transform="translate(3.403 1.118)" fill="#fff"/>
        </g>
        <g id="Mask_Group_12" data-name="Mask Group 12" transform="translate(4824.733 1144.748)" opacity="0.25" clip-path="url(#clip-path-3)">
          <ellipse id="Ellipse_36" data-name="Ellipse 36" cx="19.295" cy="19.294" rx="19.295" ry="19.294" transform="translate(-5.763 -18.715)" fill="#fff"/>
        </g>
        <g id="Mask_Group_13" data-name="Mask Group 13" transform="translate(4825.095 1145.294)" opacity="0.5" clip-path="url(#clip-path-4)">
          <ellipse id="Ellipse_37" data-name="Ellipse 37" cx="19.295" cy="19.294" rx="19.295" ry="19.294" transform="translate(-6.125 -19.26)" fill="#fff"/>
        </g>
      </g>
    </g>
  </g>
</svg>
