<svg xmlns="http://www.w3.org/2000/svg" xmlns:xlink="http://www.w3.org/1999/xlink" width="48" height="48" viewBox="0 0 48 48">
  <defs>
    <clipPath id="clip-path">
      <rect id="Rectangle_25" data-name="Rectangle 25" width="39" height="39" transform="translate(5 5)" fill="#fff"/>
    </clipPath>
    <linearGradient id="linear-gradient" x1="0.147" y1="0.125" x2="0.869" y2="0.903" gradientUnits="objectBoundingBox">
      <stop offset="0" stop-color="#f8ff96"/>
      <stop offset="1" stop-color="#f68484"/>
    </linearGradient>
    <clipPath id="clip-path-2">
      <path id="Path_180" data-name="Path 180" d="M4927.691,621.087s6.137,7.581,12.876,8.424,12.274,16.968,12.274,16.968-7.22,1.805-7.22.963,2.888-5.175,0-8.183-15.644-1.805-16.848-3.49S4927.691,621.087,4927.691,621.087Z" transform="translate(-4927.688 -621.087)" fill="none" stroke="#707070" stroke-width="1"/>
    </clipPath>
    <clipPath id="clip-path-3">
      <path id="Path_181" data-name="Path 181" d="M4946.745,571.29s8.979-.463,13.33,6.758,1.574,12.589,8.887,18.329,16.847,8.516,16.847,8.516-7.382-18.011-14.836-18.336-9.509-13.693-14.416-15.267A17.917,17.917,0,0,0,4946.745,571.29Z" transform="translate(-4946.745 -570.591)" fill="none" stroke="#707070" stroke-width="1"/>
    </clipPath>
    <clipPath id="clip-path-4">
      <path id="Path_182" data-name="Path 182" d="M4950.285,591.225s6.518,2.3,6.573,7.833-12.488,3.286-12.488,3.286Z" transform="translate(-4944.37 -591.225)" fill="none"/>
    </clipPath>
    <clipPath id="clip-Bola3">
      <rect width="48" height="48"/>
    </clipPath>
  </defs>
  <g id="Bola3" clip-path="url(#clip-Bola3)">
    <g id="Mask_Group_20" data-name="Mask Group 20" clip-path="url(#clip-path)">
      <g id="Group_92" data-name="Group 92" transform="translate(-93.688 -113.821)">
        <circle id="Ellipse_2" data-name="Ellipse 2" cx="18.755" cy="18.755" r="18.755" transform="translate(99.024 119.944)" fill="url(#linear-gradient)"/>
        <g id="Mask_Group_8" data-name="Mask Group 8" transform="translate(90.688 131.227)" opacity="0.5" clip-path="url(#clip-path-2)">
          <circle id="Ellipse_32" data-name="Ellipse 32" cx="18.755" cy="18.755" r="18.755" transform="translate(8.336 -11.282)" fill="#fff"/>
        </g>
        <g id="Mask_Group_9" data-name="Mask Group 9" transform="translate(95.456 118.591)" opacity="0.5" clip-path="url(#clip-path-3)">
          <circle id="Ellipse_33" data-name="Ellipse 33" cx="18.755" cy="18.755" r="18.755" transform="translate(3.567 1.354)" fill="#fff"/>
        </g>
        <g id="Mask_Group_10" data-name="Mask Group 10" transform="translate(94.862 123.754)" opacity="0.5" clip-path="url(#clip-path-4)">
          <circle id="Ellipse_34" data-name="Ellipse 34" cx="18.755" cy="18.755" r="18.755" transform="translate(4.162 -3.81)" fill="#fff"/>
        </g>
      </g>
    </g>
  </g>
</svg>
