<svg xmlns="http://www.w3.org/2000/svg" viewBox="0 0 18.418 20.122">
  <defs>
    <style>
      .cls-1 {
        fill: #fff;
      }
    </style>
  </defs>
  <g id="BorrarIcon" transform="translate(0 0)">
    <g id="Group_7" data-name="Group 7" transform="translate(0)">
      <path id="Path_11" data-name="Path 11" class="cls-1" d="M21.794,6.052h1.373V19.436a.688.688,0,0,0,.686.686H36.437a.688.688,0,0,0,.686-.686V6.052H38.84a.686.686,0,1,0,0-1.373H35.568a4.885,4.885,0,0,0-1.247-3.157A5.423,5.423,0,0,0,30.191,0a4.97,4.97,0,0,0-4,1.533,4.547,4.547,0,0,0-.961,3.146H21.794a.686.686,0,1,0,0,1.373Zm5.422-3.638A3.681,3.681,0,0,1,30.18,1.373,4.148,4.148,0,0,1,33.3,2.448a3.558,3.558,0,0,1,.881,2.231H26.6A3.241,3.241,0,0,1,27.217,2.414Zm8.534,3.638v12.7H24.54V6.052Z" transform="translate(-21.108 0)"/>
      <path id="Path_12" data-name="Path 12" class="cls-1" d="M174.794,195.983a.688.688,0,0,0,.686-.686V187.4a.686.686,0,1,0-1.373,0V195.3A.688.688,0,0,0,174.794,195.983Z" transform="translate(-167.931 -179.178)"/>
      <path id="Path_13" data-name="Path 13" class="cls-1" d="M282.461,195.983a.688.688,0,0,0,.686-.686V187.4a.686.686,0,1,0-1.373,0V195.3A.688.688,0,0,0,282.461,195.983Z" transform="translate(-271.25 -179.178)"/>
    </g>
  </g>
</svg>
