<svg id="EditarIcon" xmlns="http://www.w3.org/2000/svg" viewBox="0 0 19.112 20.226">
  <defs>
    <style>
      .cls-1 {
        fill: #fff;
      }
    </style>
  </defs>
  <g id="Group_82" data-name="Group 82" transform="translate(0 0)">
    <path id="Path_151" data-name="Path 151" class="cls-1" d="M148.321.224,140.535,8.01a.835.835,0,0,0-.233.544l-.052,3.977a.782.782,0,0,0,.233.57.83.83,0,0,0,.544.259h.013l3.848-.078a.8.8,0,0,0,.544-.259l7.851-7.851a.79.79,0,0,0,0-1.1L149.435.224A.806.806,0,0,0,148.321.224ZM144.538,11.7l-2.721.039.039-2.85,3.964-3.964L148.554,7.7Zm5.117-5.117-2.733-2.772,1.943-1.943,2.746,2.746Z" transform="translate(-134.394 0)"/>
    <path id="Path_152" data-name="Path 152" class="cls-1" d="M20.733,21.743a.777.777,0,1,0,0-1.555H12.96a.78.78,0,0,0-.777.777V38.713a.78.78,0,0,0,.777.777H27.47a.78.78,0,0,0,.777-.777V31.459a.777.777,0,1,0-1.555,0v6.477H13.738V21.743Z" transform="translate(-12.183 -19.265)"/>
  </g>
</svg>
