<svg id="EditarPinIcon" xmlns="http://www.w3.org/2000/svg" viewBox="0 0 13.817 13.817">
  <defs>
    <style>
      .cls-1 {
        fill: #fff;
      }
    </style>
  </defs>
  <path id="Path_168" data-name="Path 168" class="cls-1" d="M7.817,26.775a.23.23,0,0,0,.326,0l.528-.528.528.528a.23.23,0,1,0,.326-.326L9,25.921l.528-.528a.23.23,0,1,0-.326-.326l-.528.528-.528-.528a.23.23,0,1,0-.326.326l.528.528-.528.528A.23.23,0,0,0,7.817,26.775Z" transform="translate(-5.965 -19.243)"/>
  <path id="Path_169" data-name="Path 169" class="cls-1" d="M9.092,35H7.48a.23.23,0,1,0,0,.461H9.092a.23.23,0,1,0,0-.461Z" transform="translate(-5.58 -26.94)"/>
  <path id="Path_170" data-name="Path 170" class="cls-1" d="M19.817,26.775a.23.23,0,0,0,.326,0l.528-.528.528.528a.23.23,0,0,0,.326-.326L21,25.921l.528-.528a.23.23,0,0,0-.326-.326l-.528.528-.528-.528a.23.23,0,1,0-.326.326l.528.528-.528.528A.23.23,0,0,0,19.817,26.775Z" transform="translate(-15.202 -19.243)"/>
  <path id="Path_171" data-name="Path 171" class="cls-1" d="M21.092,35H19.48a.23.23,0,0,0,0,.461h1.612a.23.23,0,1,0,0-.461Z" transform="translate(-14.817 -26.94)"/>
  <path id="Path_172" data-name="Path 172" class="cls-1" d="M32.317,26.775a.23.23,0,0,0,.326,0l.528-.528.528.528a.23.23,0,0,0,.326-.326l-.528-.528.528-.528a.23.23,0,0,0-.326-.326l-.528.528-.528-.528a.23.23,0,1,0-.326.326l.528.528-.528.528A.23.23,0,0,0,32.317,26.775Z" transform="translate(-24.823 -19.243)"/>
  <path id="Path_173" data-name="Path 173" class="cls-1" d="M33.592,35H31.98a.23.23,0,0,0,0,.461h1.612a.23.23,0,1,0,0-.461Z" transform="translate(-24.439 -26.94)"/>
  <path id="Path_174" data-name="Path 174" class="cls-1" d="M45.592,35H43.98a.23.23,0,0,0,0,.461h1.612a.23.23,0,0,0,0-.461Z" transform="translate(-33.675 -26.94)"/>
  <path id="Path_175" data-name="Path 175" class="cls-1" d="M6.908,0a6.908,6.908,0,1,0,6.908,6.908A6.916,6.916,0,0,0,6.908,0Zm0,13.356a6.448,6.448,0,1,1,6.448-6.448A6.455,6.455,0,0,1,6.908,13.356Z"/>
</svg>
