<svg xmlns="http://www.w3.org/2000/svg" width="35.937" height="31.936" viewBox="0 0 35.937 31.936">

  <g id="encrypted" transform="translate(0)">
    <path id="Path_8" data-name="Path 8" d="M109.92,389.383l-.744.745,2.106,2.106h3.506v-1.053h-3.07Zm0,0" transform="translate(-101.513 -362.053)" fill="#d3d3d3"/>
    <path id="Path_9" data-name="Path 9" d="M124.186,4.365,127.5,1.053h9.923l3.312,3.312V9.221h1.053V3.928L137.856,0H127.061l-3.928,3.928V9.221h1.053Zm0,0" transform="translate(-114.49)" fill="#d3d3d3"/>
    <path id="Path_10" data-name="Path 10" d="M181.978,52.7V48.768l-2.006-2.006H171.9l-2.006,2.006V52.7h1.053V49.2l1.389-1.389h7.2l1.389,1.389v3.5Zm0,0" transform="translate(-157.966 -43.48)" fill="#d3d3d3"/>
    <path id="Path_11" data-name="Path 11" d="M207.276,201.129a3.678,3.678,0,0,0-2.056,6.728v6.2h4.112v-6.2a3.678,3.678,0,0,0-2.055-6.728Zm1.273,5.974-.271.151v5.754h-2.006v-5.754L206,207.1a2.626,2.626,0,1,1,2.547,0Zm0,0" transform="translate(-189.307 -187.012)" fill="#d3d3d3"/>
    <path id="Path_12" data-name="Path 12" d="M232.079,227.555a1.805,1.805,0,1,0,1.805,1.805A1.807,1.807,0,0,0,232.079,227.555Zm0,2.558a.753.753,0,1,1,.753-.753A.753.753,0,0,1,232.079,230.113Zm0,0" transform="translate(-214.111 -211.583)" fill="#d3d3d3"/>
    <path id="Path_13" data-name="Path 13" d="M34.424,147.749a1.515,1.515,0,0,0-1.418.986h-.94l-1.883-1.884v-.784h1.674a1.513,1.513,0,1,0,0-1.053H30.183v-.784l1.883-1.883h.94a1.513,1.513,0,1,0,0-1.053H31.63l-1.447,1.447V140.56H5.754v12.229l-1.447-1.447H2.931a1.513,1.513,0,1,0,0,1.053h.94l1.883,1.883v.784H4.08a1.513,1.513,0,1,0,0,1.053H5.754v.784L3.87,158.781h-.94a1.513,1.513,0,1,0,0,1.053H4.307l1.447-1.447v.722L9.042,162.4H26.894l3.288-3.288V148.341l1.447,1.447h1.376a1.513,1.513,0,1,0,1.418-2.039Zm-1.149-2.667a.46.46,0,1,1-.46.46A.461.461,0,0,1,33.275,145.082Zm1.149-3.72a.46.46,0,1,1-.46.46A.46.46,0,0,1,34.424,141.362ZM1.512,152.327a.46.46,0,1,1,.46-.46A.46.46,0,0,1,1.512,152.327Zm1.149,3.72a.46.46,0,1,1,.46-.46A.46.46,0,0,1,2.662,156.047Zm-1.149,3.72a.46.46,0,1,1,.46-.46A.46.46,0,0,1,1.512,159.767Zm24.946,1.577H9.478l-2.672-2.672v-7.437l1.53,1.53H9.77a1.55,1.55,0,1,0,0-1.053h-1l-1.966-1.966v-.841h3.987a1.55,1.55,0,1,0,0-1.053H6.807v-.841l1.966-1.966h1a1.55,1.55,0,1,0,0-1.053H8.337l-1.53,1.53v-3.909H29.13v8.4l-1.53-1.53H26.166a1.55,1.55,0,1,0,0,1.053h1L29.13,151.5v.841H24.461a1.55,1.55,0,1,0,0,1.053H29.13v.841L27.164,156.2h-1a1.55,1.55,0,1,0,0,1.053H27.6l1.53-1.53v2.951Zm-15.727-9.105a.5.5,0,1,1,.5.5A.5.5,0,0,1,10.731,152.239Zm1.024-3.86a.5.5,0,1,1,.5.5A.5.5,0,0,1,11.754,148.379Zm-1.024-3.86a.5.5,0,1,1,.5.5A.5.5,0,0,1,10.731,144.518ZM25.206,149a.5.5,0,1,1-.5-.5A.5.5,0,0,1,25.206,149Zm-1.705,3.86a.5.5,0,1,1-.5-.5A.5.5,0,0,1,23.5,152.865Zm1.705,3.86a.5.5,0,1,1-.5-.5A.5.5,0,0,1,25.206,156.725Zm9.218-7a.46.46,0,1,1,.46-.46A.461.461,0,0,1,34.424,149.722Zm0,0" transform="translate(0 -130.461)" fill="#d3d3d3"/>
    <path id="Path_14" data-name="Path 14" d="M268.919,169.932h-6.2v-1.053h6.2Zm-6.9,0h-1.053v-1.053h1.053Zm-1.755,0h-1.053v-1.053h1.053Zm0,0" transform="translate(-241.018 -157.026)" fill="#d3d3d3"/>
    <path id="Path_15" data-name="Path 15" d="M206.939,22.053h-5.026V21h5.026Zm-5.729,0h-1.053V21h1.053Zm-1.755,0H198.4V21h1.053Zm0,0" transform="translate(-184.477 -19.526)" fill="#d3d3d3"/>
    <path id="Path_16" data-name="Path 16" d="M248.5,293.089v-1.579h1.053v1.579Zm0-2.281v-1.053h1.053v1.053Zm0-1.755V288h1.053v1.053Zm0,0" transform="translate(-231.054 -267.786)" fill="#d3d3d3"/>
  </g>
</svg>
