<svg xmlns="http://www.w3.org/2000/svg" width="44" height="44" viewBox="0 0 44 44">
  <g id="MostrarCuentaIcon" transform="translate(-292 -306)">
    <g id="eye" transform="translate(303 244)">
      <g id="Group_2" data-name="Group 2" transform="translate(7.75 83.5)">
        <g id="Group_1" data-name="Group 1" transform="translate(0 0)">
          <path id="Path_1" data-name="Path 1" d="M186.709,256.12a.417.417,0,1,0,0,.589A.416.416,0,0,0,186.709,256.12Z" transform="translate(-185.997 -255.997)" fill="#fff"/>
        </g>
      </g>
      <g id="Group_4" data-name="Group 4" transform="translate(9.417 84.333)">
        <g id="Group_3" data-name="Group 3" transform="translate(0 0)">
          <path id="Path_2" data-name="Path 2" d="M227.25,276a1.25,1.25,0,1,0,1.25,1.25A1.251,1.251,0,0,0,227.25,276Zm0,1.667a.417.417,0,1,1,.417-.417A.417.417,0,0,1,227.25,277.667Z" transform="translate(-226 -276)" fill="#fff"/>
        </g>
      </g>
      <g id="Group_6" data-name="Group 6" transform="translate(7.333 82.25)">
        <g id="Group_5" data-name="Group 5" transform="translate(0 0)">
          <path id="Path_3" data-name="Path 3" d="M179.333,226a3.306,3.306,0,0,0-1.339.28.417.417,0,1,0,.335.763,2.478,2.478,0,0,1,1-.209,2.5,2.5,0,1,1-2.5,2.5c0-.014,0-.028,0-.042a.417.417,0,0,0-.833-.019c0,.021,0,.041,0,.062A3.333,3.333,0,1,0,179.333,226Z" transform="translate(-176 -226)" fill="#fff"/>
        </g>
      </g>
      <g id="Group_8" data-name="Group 8" transform="translate(10.25 76)">
        <g id="Group_7" data-name="Group 7" transform="translate(0 0)">
          <path id="Path_4" data-name="Path 4" d="M246.417,76a.417.417,0,0,0-.417.417v2.5a.417.417,0,0,0,.833,0v-2.5A.417.417,0,0,0,246.417,76Z" transform="translate(-246 -76)" fill="#fff"/>
        </g>
      </g>
      <g id="Group_10" data-name="Group 10" transform="translate(3.533 77.2)">
        <g id="Group_9" data-name="Group 9" transform="translate(0 0)">
          <path id="Path_5" data-name="Path 5" d="M87.268,106.679,85.5,104.911a.417.417,0,0,0-.589.589l1.767,1.767a.417.417,0,0,0,.589-.589Z" transform="translate(-84.789 -104.789)" fill="#fff"/>
        </g>
      </g>
      <g id="Group_12" data-name="Group 12" transform="translate(15.2 77.2)">
        <g id="Group_11" data-name="Group 11" transform="translate(0 0)">
          <path id="Path_6" data-name="Path 6" d="M367.269,104.911a.417.417,0,0,0-.589,0l-1.767,1.768a.417.417,0,1,0,.589.589l1.767-1.767A.417.417,0,0,0,367.269,104.911Z" transform="translate(-364.79 -104.789)" fill="#fff"/>
        </g>
      </g>
      <g id="Group_14" data-name="Group 14" transform="translate(0 80.167)">
        <g id="Group_13" data-name="Group 13" transform="translate(0 0)">
          <path id="Path_7" data-name="Path 7" d="M21.229,181.488c-2.647-3-6.577-5.488-10.562-5.488S2.751,178.492.1,181.488a.417.417,0,1,0,.625.552c.089-.1.18-.2.272-.3a11.717,11.717,0,0,0,19.332,0c.092.1.183.2.272.3a.417.417,0,1,0,.625-.552ZM10.667,186a10.865,10.865,0,0,1-9.07-4.874c1.484-1.455,4.915-4.292,9.07-4.292s7.586,2.838,9.07,4.292A10.865,10.865,0,0,1,10.667,186Z" transform="translate(0 -176)" fill="#fff"/>
        </g>
      </g>
    </g>
    <circle id="Ellipse_23" data-name="Ellipse 23" cx="22" cy="22" r="22" transform="translate(292 306)" fill="#fff" opacity="0.07"/>
  </g>
</svg>
