<svg id="OpcionesTop" xmlns="http://www.w3.org/2000/svg" viewBox="0 0 17.077 17">
  <defs>
    <style>
      .cls-1 {
        fill: #fff;
      }
    </style>
  </defs>
  <g id="Group_35" data-name="Group 35" transform="translate(0 0)">
    <path id="Path_59" data-name="Path 59" class="cls-1" d="M1.214,11.323l.795.364a.7.7,0,0,1,.364.872l-.309.817A1.96,1.96,0,0,0,2.3,15.22a1.993,1.993,0,0,0,1.656.872,2.014,2.014,0,0,0,.718-.132l.817-.309a.594.594,0,0,1,.243-.044.687.687,0,0,1,.629.408l.364.795a2.012,2.012,0,0,0,3.665,0l.364-.795a.693.693,0,0,1,.629-.408.629.629,0,0,1,.243.044l.817.32a2.027,2.027,0,0,0,.718.143h0a2.063,2.063,0,0,0,1.656-.883,2.017,2.017,0,0,0,.232-1.855l-.309-.817a.7.7,0,0,1,.364-.872l.795-.364a2.012,2.012,0,0,0,0-3.665L15.1,7.294a.7.7,0,0,1-.364-.872l.309-.817a1.96,1.96,0,0,0-.232-1.844,1.993,1.993,0,0,0-1.656-.872,2.014,2.014,0,0,0-.718.132l-.817.309a.594.594,0,0,1-.243.044.687.687,0,0,1-.629-.408l-.364-.795A2,2,0,0,0,8.555.991,2.054,2.054,0,0,0,6.69,2.183l-.364.795a.693.693,0,0,1-.629.408.629.629,0,0,1-.243-.044l-.817-.309A2.014,2.014,0,0,0,3.919,2.9a2.052,2.052,0,0,0-1.656.872,2,2,0,0,0-.232,1.844l.309.817a.7.7,0,0,1-.364.872l-.795.364a1.992,1.992,0,0,0,.033,3.654Zm.541-2.462L2.55,8.5A2.016,2.016,0,0,0,3.6,5.959L3.29,5.142a.659.659,0,0,1,.077-.629.674.674,0,0,1,.817-.254L5,4.568a1.955,1.955,0,0,0,.706.132h0A2.027,2.027,0,0,0,7.54,3.519L7.9,2.724a.677.677,0,0,1,.629-.408.687.687,0,0,1,.629.408l.364.795A2.027,2.027,0,0,0,11.359,4.7a1.955,1.955,0,0,0,.706-.132l.817-.309a.707.707,0,0,1,.817.254.659.659,0,0,1,.077.629l-.309.817A2.026,2.026,0,0,0,14.516,8.5l.795.364a.677.677,0,0,1,.408.629.687.687,0,0,1-.408.629l-.795.364a2.016,2.016,0,0,0-1.049,2.539l.309.817a.659.659,0,0,1-.077.629.674.674,0,0,1-.817.254l-.817-.309a1.955,1.955,0,0,0-.706-.132,2.027,2.027,0,0,0-1.832,1.181l-.364.795a.677.677,0,0,1-.629.408.687.687,0,0,1-.629-.408l-.364-.795a2.027,2.027,0,0,0-1.832-1.181A1.955,1.955,0,0,0,5,14.414l-.817.309a.707.707,0,0,1-.817-.254.659.659,0,0,1-.077-.629l.309-.817A2.026,2.026,0,0,0,2.55,10.484l-.795-.364a.677.677,0,0,1-.408-.629A.687.687,0,0,1,1.755,8.862Z" transform="translate(0 -0.991)"/>
    <path id="Path_60" data-name="Path 60" class="cls-1" d="M147.936,151.231a2.87,2.87,0,1,0-2.87-2.87A2.879,2.879,0,0,0,147.936,151.231Zm0-4.416a1.545,1.545,0,1,1-1.545,1.545A1.55,1.55,0,0,1,147.936,146.816Z" transform="translate(-139.414 -139.861)"/>
  </g>
</svg>
