<svg id="RegresarIcon" xmlns="http://www.w3.org/2000/svg" viewBox="0 0 22.953 17">
  <defs>
    <style>
      .cls-1 {
        fill: #fff;
      }
    </style>
  </defs>
  <g id="Group_74" data-name="Group 74" transform="translate(0)">
    <path id="Path_144" data-name="Path 144" class="cls-1" d="M.275,62.921l-.031.031-.031.031C.2,63,.2,63.013.183,63.028l-.031.031c-.015.015-.015.031-.031.046,0,.015-.015.015-.015.031-.015.015-.015.031-.031.061,0,.015-.015.015-.015.031-.015.015-.015.046-.031.061V63.3a.138.138,0,0,0-.015.077V63.4c0,.031-.015.046-.015.077v.214a.138.138,0,0,0,.015.077v.015c0,.031.015.046.015.077v.015c.015.015.015.046.031.061,0,.015.015.015.015.031.015.015.015.046.031.061,0,.015.015.015.015.031.015.015.015.031.031.046,0,.015.015.015.031.031s.015.031.031.046l.031.031.031.031.015.015L8.8,71.848a.922.922,0,0,0,1.225-1.378L3.307,64.513H22.033a.919.919,0,1,0,0-1.837H3.307l6.707-5.987A.922.922,0,1,0,8.788,55.31L.29,62.905A.015.015,0,0,1,.275,62.921Z" transform="translate(0.001 -55.077)"/>
  </g>
</svg>
